<svg xmlns="http://www.w3.org/2000/svg" viewBox="0 0 24 24" fill="currentColor">
  <path d="M12 .5C5.65.5.5 5.65.5 12c0 5.08 3.29 9.39 7.86 10.91.58.11.79-.25.79-.56 0-.28-.01-1.02-.02-2-3.2.69-3.87-1.54-3.87-1.54-.52-1.32-1.27-1.67-1.27-1.67-1.04-.71.08-.7.08-.7 1.15.08 1.76 1.18 1.76 1.18 1.02 1.75 2.69 1.25 3.34.95.1-.74.4-1.25.73-1.54-2.55-.29-5.23-1.28-5.23-5.69 0-1.26.45-2.29 1.18-3.1-.12-.29-.51-1.46.11-3.04 0 0 .96-.31 3.15 1.18a10.93 10.93 0 0 1 5.74 0c2.19-1.49 3.15-1.18 3.15-1.18.62 1.58.23 2.75.11 3.04.74.81 1.18 1.84 1.18 3.1 0 4.42-2.69 5.39-5.25 5.68.41.36.78 1.07.78 2.16 0 1.56-.01 2.82-.01 3.21 0 .31.21.68.8.56C20.21 21.39 23.5 17.08 23.5 12 23.5 5.65 18.35.5 12 .5z"/>
</svg>
